<svg width="28" height="27" viewBox="0 0 28 27" fill="none" xmlns="http://www.w3.org/2000/svg">
<g clip-path="url(#clip0_67_4240)">
<g clip-path="url(#clip1_67_4240)">
<path d="M12.9375 16.5371C15.9375 16.5371 20.9375 20.5371 20.9375 20.5371V4.53711C20.9375 4.53711 15.9375 8.53711 12.9375 8.53711M12.9375 16.5371V8.53711M12.9375 16.5371H7.9375C5.7285 16.5371 3.9375 15.6481 3.9375 12.5371C3.9375 9.42611 5.7285 8.53711 7.9375 8.53711H12.9375M6.9375 16.5371L9.9375 24.5371H13.9375L10.9375 16.5371M20.9375 15.5371C21.3315 15.5371 21.7216 15.4595 22.0856 15.3087C22.4495 15.158 22.7802 14.937 23.0588 14.6584C23.3374 14.3799 23.5584 14.0491 23.7091 13.6852C23.8599 13.3212 23.9375 12.9311 23.9375 12.5371C23.9375 12.1431 23.8599 11.753 23.7091 11.3891C23.5584 11.0251 23.3374 10.6944 23.0588 10.4158C22.7802 10.1372 22.4495 9.91623 22.0856 9.76547C21.7216 9.61471 21.3315 9.53711 20.9375 9.53711M12.9375 20.5371C13.9375 20.5371 15.9375 19.5371 15.9375 17.5371" stroke="white" stroke-width="2"/>
</g>
</g>
<defs>
<clipPath id="clip0_67_4240">
<rect width="26.4" height="26.4" fill="white" transform="translate(0.736328 0.533203)"/>
</clipPath>
<clipPath id="clip1_67_4240">
<rect width="24" height="24" fill="white" transform="translate(1.9375 1.53711)"/>
</clipPath>
</defs>
</svg>
