<svg width="22" height="21" viewBox="0 0 22 21" fill="none" xmlns="http://www.w3.org/2000/svg">
<g clip-path="url(#clip0_67_4300)">
<g clip-path="url(#clip1_67_4300)">
<g clip-path="url(#clip2_67_4300)">
<path fill-rule="evenodd" clip-rule="evenodd" d="M18.215 2.94655C16.335 1.07283 13.835 0.0411448 11.1711 0.0400391C5.68169 0.0400391 1.21446 4.48522 1.21224 9.94992C1.21113 11.6964 1.67002 13.4015 2.54169 14.9043L1.12891 20.04L6.4078 18.6622C7.86224 19.4523 9.50002 19.8675 11.1666 19.8681H11.1711C16.6594 19.8681 21.1272 15.4223 21.1289 9.95821C21.13 7.3099 20.095 4.81972 18.215 2.94655ZM11.1711 18.1945H11.1677C9.6828 18.1945 8.22613 17.797 6.95502 17.0461L6.6528 16.8676L3.52002 17.6853L4.35613 14.6455L4.15947 14.3337C3.33113 13.0223 2.89336 11.5062 2.89391 9.94992C2.89558 5.40854 6.60891 1.71362 11.1744 1.71362C13.385 1.71472 15.4633 2.57225 17.0261 4.12972C18.5889 5.68664 19.4489 7.75663 19.4478 9.95711C19.4455 14.499 15.7328 18.1945 11.1711 18.1945ZM15.7111 12.0254C15.4622 11.9016 14.2389 11.3028 14.0105 11.2199C13.7822 11.1369 13.6166 11.096 13.4511 11.3437C13.2855 11.5919 12.8083 12.1498 12.6633 12.3146C12.5183 12.4799 12.3728 12.5003 12.1244 12.3765C11.8755 12.2526 11.0739 11.9911 10.1234 11.1474C9.38391 10.4906 8.88446 9.68011 8.7389 9.43187C8.5939 9.18362 8.72336 9.04983 8.8478 8.92653C8.95947 8.8154 9.09669 8.63738 9.22113 8.49252C9.34558 8.34822 9.38669 8.24428 9.47002 8.07952C9.55336 7.9142 9.51168 7.7699 9.44946 7.6455C9.38725 7.52166 8.89002 6.30255 8.68225 5.80717C8.48002 5.3245 8.27501 5.38974 8.1228 5.382C7.9778 5.37481 7.81169 5.37371 7.64558 5.37371C7.47947 5.37371 7.21002 5.43563 6.98169 5.68332C6.75336 5.93156 6.11058 6.53034 6.11058 7.74889C6.11058 8.96745 7.00223 10.145 7.12669 10.3109C7.25113 10.4762 8.88169 12.9775 11.3772 14.0501C11.9705 14.3055 12.4344 14.4575 12.7961 14.572C13.3922 14.7605 13.9344 14.734 14.3633 14.6704C14.8411 14.5991 15.8355 14.0711 16.0428 13.4928C16.25 12.9144 16.25 12.4185 16.1878 12.3151C16.1255 12.2117 15.96 12.1493 15.7111 12.0254Z" fill="#25D366"/>
</g>
</g>
</g>
<defs>
<clipPath id="clip0_67_4300">
<rect width="21" height="20" fill="white" transform="translate(0.628906 0.0400391)"/>
</clipPath>
<clipPath id="clip1_67_4300">
<rect width="21" height="20" fill="white" transform="translate(0.628906 0.0400391)"/>
</clipPath>
<clipPath id="clip2_67_4300">
<rect width="21" height="20" fill="white" transform="translate(0.628906 0.0400391)"/>
</clipPath>
</defs>
</svg>
